<svg id="Ebene_1" data-name="Ebene 1" xmlns="http://www.w3.org/2000/svg" viewBox="0 0 32 32"><defs><style>.cls-1{fill:#fff;}</style></defs><path class="cls-1" d="M5.39,5.39a15,15,0,1,0,21.22,0A15,15,0,0,0,5.39,5.39ZM25.23,25.22h0a13,13,0,1,1,0-18.46A13,13,0,0,1,25.23,25.23Z"/><path class="cls-1" d="M19.76,10.56,16,14.32l-3.76-3.76a.3.3,0,0,0-.41,0l-1.27,1.27a.3.3,0,0,0,0,.41L14.32,16l-3.76,3.76a.3.3,0,0,0,0,.41l1.27,1.27a.3.3,0,0,0,.41,0L16,17.68l3.76,3.76a.3.3,0,0,0,.41,0l1.27-1.27a.3.3,0,0,0,0-.41L17.68,16l3.76-3.76a.3.3,0,0,0,0-.41l-1.27-1.27A.3.3,0,0,0,19.76,10.56Z"/></svg>